<mxfile host="app.diagrams.net" agent="Mozilla/5.0 (Windows NT 10.0; Win64; x64) AppleWebKit/537.36 (KHTML, like Gecko) Chrome/131.0.0.0 Safari/537.36" version="27.0.8">
  <diagram name="第 1 页" id="A2LyW8vZYYpqfzleIyA1">
    <mxGraphModel dx="1426" dy="905" grid="1" gridSize="10" guides="1" tooltips="1" connect="1" arrows="1" fold="1" page="1" pageScale="1" pageWidth="827" pageHeight="1169" math="1" shadow="0">
      <root>
        <mxCell id="0" />
        <mxCell id="1" parent="0" />
        <mxCell id="uw1cE4tZzsOHfj3c9WJl-80" value="" style="rounded=0;whiteSpace=wrap;html=1;fillColor=#CCFF99;" vertex="1" parent="1">
          <mxGeometry x="210" y="280" width="340" height="520" as="geometry" />
        </mxCell>
        <mxCell id="uw1cE4tZzsOHfj3c9WJl-95" style="edgeStyle=orthogonalEdgeStyle;rounded=0;orthogonalLoop=1;jettySize=auto;html=1;exitX=1;exitY=0.5;exitDx=0;exitDy=0;" edge="1" parent="1" source="uw1cE4tZzsOHfj3c9WJl-2" target="uw1cE4tZzsOHfj3c9WJl-81">
          <mxGeometry relative="1" as="geometry" />
        </mxCell>
        <mxCell id="uw1cE4tZzsOHfj3c9WJl-2" value="输入H" style="rounded=0;whiteSpace=wrap;html=1;fillColor=#FFE599;" vertex="1" parent="1">
          <mxGeometry x="40" y="319.00000000000006" width="120" height="60" as="geometry" />
        </mxCell>
        <mxCell id="uw1cE4tZzsOHfj3c9WJl-77" value="$$输出\hat{Y}$$" style="rounded=0;whiteSpace=wrap;html=1;fillColor=#FFE599;" vertex="1" parent="1">
          <mxGeometry x="600" y="709.94" width="120" height="60" as="geometry" />
        </mxCell>
        <mxCell id="uw1cE4tZzsOHfj3c9WJl-97" style="edgeStyle=orthogonalEdgeStyle;rounded=0;orthogonalLoop=1;jettySize=auto;html=1;entryX=0.5;entryY=0;entryDx=0;entryDy=0;" edge="1" parent="1" source="uw1cE4tZzsOHfj3c9WJl-81" target="uw1cE4tZzsOHfj3c9WJl-84">
          <mxGeometry relative="1" as="geometry" />
        </mxCell>
        <mxCell id="uw1cE4tZzsOHfj3c9WJl-81" value="" style="rounded=0;whiteSpace=wrap;html=1;fillColor=#99CCFF;" vertex="1" parent="1">
          <mxGeometry x="250" y="309" width="240" height="80" as="geometry" />
        </mxCell>
        <mxCell id="uw1cE4tZzsOHfj3c9WJl-83" value="层归一化" style="text;html=1;align=center;verticalAlign=middle;whiteSpace=wrap;rounded=0;" vertex="1" parent="1">
          <mxGeometry x="250" y="310" width="70" height="30" as="geometry" />
        </mxCell>
        <mxCell id="uw1cE4tZzsOHfj3c9WJl-98" style="edgeStyle=orthogonalEdgeStyle;rounded=0;orthogonalLoop=1;jettySize=auto;html=1;exitX=0.5;exitY=1;exitDx=0;exitDy=0;entryX=0.5;entryY=0;entryDx=0;entryDy=0;" edge="1" parent="1" source="uw1cE4tZzsOHfj3c9WJl-84" target="uw1cE4tZzsOHfj3c9WJl-87">
          <mxGeometry relative="1" as="geometry" />
        </mxCell>
        <mxCell id="uw1cE4tZzsOHfj3c9WJl-84" value="" style="rounded=0;whiteSpace=wrap;html=1;fillColor=#FFCC99;" vertex="1" parent="1">
          <mxGeometry x="250" y="418" width="240" height="122" as="geometry" />
        </mxCell>
        <mxCell id="uw1cE4tZzsOHfj3c9WJl-85" value="&lt;p class=&quot;MsoNormal&quot;&gt;&lt;br&gt;&lt;/p&gt;" style="text;html=1;align=center;verticalAlign=middle;whiteSpace=wrap;rounded=0;" vertex="1" parent="1">
          <mxGeometry x="260" y="424" width="130" height="30" as="geometry" />
        </mxCell>
        <mxCell id="uw1cE4tZzsOHfj3c9WJl-86" value="空间特映与非线性变换" style="text;html=1;align=center;verticalAlign=middle;whiteSpace=wrap;rounded=0;" vertex="1" parent="1">
          <mxGeometry x="260" y="424" width="130" height="30" as="geometry" />
        </mxCell>
        <mxCell id="uw1cE4tZzsOHfj3c9WJl-87" value="" style="rounded=0;whiteSpace=wrap;html=1;fillColor=#FFCC99;" vertex="1" parent="1">
          <mxGeometry x="250" y="572.06" width="240" height="197.94" as="geometry" />
        </mxCell>
        <mxCell id="uw1cE4tZzsOHfj3c9WJl-88" value="多部交通流量状态预测" style="text;html=1;align=center;verticalAlign=middle;whiteSpace=wrap;rounded=0;" vertex="1" parent="1">
          <mxGeometry x="260" y="583.5" width="130" height="30" as="geometry" />
        </mxCell>
        <mxCell id="uw1cE4tZzsOHfj3c9WJl-89" value="&lt;span style=&quot;font-size: 18px;&quot;&gt;$$H^{&#39;} =LayerNorm(H)$$&lt;/span&gt;" style="rounded=0;whiteSpace=wrap;html=1;fillColor=#D4E1F5;" vertex="1" parent="1">
          <mxGeometry x="260" y="338.62" width="210" height="39.94" as="geometry" />
        </mxCell>
        <mxCell id="uw1cE4tZzsOHfj3c9WJl-90" value="&lt;font style=&quot;font-size: 17px;&quot;&gt;&amp;nbsp;$$X^{&#39;}_{pred} =ReLU(H^{&#39;}W+b)$$&lt;/font&gt;" style="rounded=0;whiteSpace=wrap;html=1;fillColor=#D4E1F5;" vertex="1" parent="1">
          <mxGeometry x="260" y="458.62" width="220" height="71.38" as="geometry" />
        </mxCell>
        <mxCell id="uw1cE4tZzsOHfj3c9WJl-92" value="&lt;span style=&quot;font-size: 18px;&quot;&gt;$$H_{last}=H^{&#39;}[:,-1,:,:] $$&lt;/span&gt;" style="rounded=0;whiteSpace=wrap;html=1;fillColor=#D4E1F5;" vertex="1" parent="1">
          <mxGeometry x="265" y="613.56" width="210" height="39.94" as="geometry" />
        </mxCell>
        <mxCell id="uw1cE4tZzsOHfj3c9WJl-93" value="&lt;span style=&quot;font-size: 18px;&quot;&gt;$$\hat{Y}_t=H_{last}W_t+b_t&amp;nbsp;$$&lt;/span&gt;" style="rounded=0;whiteSpace=wrap;html=1;fillColor=#D4E1F5;" vertex="1" parent="1">
          <mxGeometry x="270" y="670" width="210" height="39.94" as="geometry" />
        </mxCell>
        <mxCell id="uw1cE4tZzsOHfj3c9WJl-99" style="edgeStyle=orthogonalEdgeStyle;rounded=0;orthogonalLoop=1;jettySize=auto;html=1;exitX=1;exitY=0.5;exitDx=0;exitDy=0;entryX=0;entryY=0.5;entryDx=0;entryDy=0;" edge="1" parent="1" source="uw1cE4tZzsOHfj3c9WJl-94" target="uw1cE4tZzsOHfj3c9WJl-77">
          <mxGeometry relative="1" as="geometry" />
        </mxCell>
        <mxCell id="uw1cE4tZzsOHfj3c9WJl-94" value="&lt;span style=&quot;font-size: 18px;&quot;&gt;$$\hat{Y}=[\hat{Y_1},\hat{Y_2}...{\hat{Y}_{T}}]&amp;nbsp;$$&lt;/span&gt;" style="rounded=0;whiteSpace=wrap;html=1;fillColor=#D4E1F5;" vertex="1" parent="1">
          <mxGeometry x="270" y="720" width="210" height="39.94" as="geometry" />
        </mxCell>
      </root>
    </mxGraphModel>
  </diagram>
</mxfile>
